<?xml version="1.0" encoding="UTF-8"?>
<svg id="Layer_1" data-name="Layer 1" xmlns="http://www.w3.org/2000/svg" width="1024" height="512" xmlns:xlink="http://www.w3.org/1999/xlink" viewBox="0 0 1024 512">
  <defs>
    <clipPath id="clippath">
      <rect x="11.73" y="21.88" width="474.61" height="474.61" fill="none" stroke="#09f" stroke-miterlimit="10" stroke-width="4"/>
    </clipPath>
  </defs>
  <path d="M775.11,154.53c-.88,3.8-1.75,8.19-2.34,12.29,34.52-1.17,64.07-4.68,97.12-12.87l.29,40.66c-27.5,4.97-66.7,8.78-102.97,10.24l-1.75,21.06c12.87-2.63,26.91-4.1,40.66-4.1h1.75c1.17-6.14,2.05-12.58,2.34-16.67l43,10.24c-1.17,2.93-3.22,8.19-4.97,13.46,32.76,11.99,55.58,38.03,55.58,72.84,0,41.25-22.53,83.37-96.54,94.49l-23.4-37.15c58.51-6.44,76.06-35.69,76.06-59.39,0-14.92-8.19-28.08-23.99-35.4-15.5,38.32-38.32,67.87-59.39,85.13,2.05,7.02,4.1,14.04,6.44,20.77l-40.66,12c-1.17-2.93-2.05-6.44-3.22-9.95-13.16,5.85-28.08,9.95-43,9.95-22.53,0-42.13-13.46-42.13-45.93,0-37.74,29.84-77.23,71.09-97.12.58-11.12,1.46-22.23,2.63-33.06h-4.68c-16.97,0-39.79-1.46-54.41-2.05l-1.17-40.37c10.53,1.46,36.28,4.1,57.05,4.1h7.02c.58-4.1,1.17-7.9,1.46-11.7.59-5.85,1.17-13.75.88-19.6l45.64,1.17c-2.05,6.73-3.22,11.99-4.39,16.97ZM707.24,339.12c6.44,0,14.63-2.34,23.11-7.02-2.63-15.5-4.68-32.76-5.56-50.61-18.14,14.04-29.25,32.47-29.25,45.05,0,8.19,2.93,12.58,11.7,12.58ZM766.92,302.84c11.12-11.99,21.36-26.33,29.55-45.05-12.29.59-22.82,2.63-32.18,5.27.29,14.63,1.17,27.79,2.63,39.79Z" fill="#ccc" stroke="#c03" stroke-miterlimit="10" stroke-width="5"/>
  <g>
    <g clip-path="url(#clippath)">
      <g>
        <path d="M739.4,138.72c-4.6,19.93-9.2,42.94-12.27,64.41,180.95-6.14,335.83-24.54,509.12-67.47l1.54,213.15c-144.15,26.07-349.64,46.01-539.79,53.67-3.07,36.8-6.14,73.61-9.2,110.41,67.47-13.8,141.08-21.47,213.15-21.47h9.2c6.13-32.2,10.73-65.94,12.27-87.41l225.42,53.67c-6.13,15.33-16.87,42.94-26.07,70.54,171.75,62.87,291.36,199.35,291.36,381.84,0,216.22-118.08,437.04-506.05,495.32l-122.68-194.75c306.7-33.74,398.71-187.09,398.71-311.3,0-78.21-42.94-147.22-125.75-185.55-81.28,200.89-200.89,355.77-311.3,446.24,10.73,36.8,21.47,73.61,33.73,108.88l-213.15,62.87c-6.14-15.33-10.73-33.74-16.87-52.14-69.01,30.67-147.22,52.14-225.42,52.14-118.08,0-220.82-70.54-220.82-240.76,0-197.82,156.42-404.84,372.64-509.12,3.07-58.27,7.67-116.55,13.8-173.28h-24.54c-88.94,0-208.55-7.67-285.23-10.73l-6.13-211.62c55.2,7.67,190.15,21.47,299.03,21.47h36.8c3.07-21.47,6.14-41.4,7.67-61.34,3.07-30.67,6.13-72.07,4.6-102.74l239.23,6.13c-10.73,35.27-16.87,62.88-23,88.94ZM383.63,1106.36c33.74,0,76.67-12.27,121.15-36.8-13.8-81.28-24.54-171.75-29.14-265.29-95.07,73.61-153.35,170.22-153.35,236.16,0,42.94,15.33,65.94,61.34,65.94ZM696.46,916.2c58.27-62.87,111.94-138.01,154.88-236.16-64.41,3.07-119.61,13.8-168.68,27.6,1.53,76.67,6.14,145.68,13.8,208.55Z" fill="#ccc" stroke-width="0"/>
        <path d="M739.4,138.72c-4.6,19.93-9.2,42.94-12.27,64.41,180.95-6.14,335.83-24.54,509.12-67.47l1.54,213.15c-144.15,26.07-349.64,46.01-539.79,53.67-3.07,36.8-6.14,73.61-9.2,110.41,67.47-13.8,141.08-21.47,213.15-21.47h9.2c6.13-32.2,10.73-65.94,12.27-87.41l225.42,53.67c-6.13,15.33-16.87,42.94-26.07,70.54,171.75,62.87,291.36,199.35,291.36,381.84,0,216.22-118.08,437.04-506.05,495.32l-122.68-194.75c306.7-33.74,398.71-187.09,398.71-311.3,0-78.21-42.94-147.22-125.75-185.55-81.28,200.89-200.89,355.77-311.3,446.24,10.73,36.8,21.47,73.61,33.73,108.88l-213.15,62.87c-6.14-15.33-10.73-33.74-16.87-52.14-69.01,30.67-147.22,52.14-225.42,52.14-118.08,0-220.82-70.54-220.82-240.76,0-197.82,156.42-404.84,372.64-509.12,3.07-58.27,7.67-116.55,13.8-173.28h-24.54c-88.94,0-208.55-7.67-285.23-10.73l-6.13-211.62c55.2,7.67,190.15,21.47,299.03,21.47h36.8c3.07-21.47,6.14-41.4,7.67-61.34,3.07-30.67,6.13-72.07,4.6-102.74l239.23,6.13c-10.73,35.27-16.87,62.88-23,88.94ZM383.63,1106.36c33.74,0,76.67-12.27,121.15-36.8-13.8-81.28-24.54-171.75-29.14-265.29-95.07,73.61-153.35,170.22-153.35,236.16,0,42.94,15.33,65.94,61.34,65.94ZM696.46,916.2c58.27-62.87,111.94-138.01,154.88-236.16-64.41,3.07-119.61,13.8-168.68,27.6,1.53,76.67,6.14,145.68,13.8,208.55Z" fill="none" opacity=".75" stroke="#c03" stroke-miterlimit="10" stroke-width="110"/>
      </g>
    </g>
    <rect x="11.73" y="21.88" width="474.61" height="474.61" fill="none" stroke="#09f" stroke-miterlimit="10" stroke-width="4"/>
  </g>
  <rect x="652.94" y="144.59" width="78.68" height="78.68" fill="none" stroke="#09f" stroke-miterlimit="10"/>
  <g>
    <path d="M491.75,184.01l14.61-7.3v14.61l-14.61-7.3Z" fill="#09f" stroke-width="0"/>
    <path d="M503.43,182.55h145.88v2.92h-145.88v-2.92Z" fill="#09f" stroke-width="0"/>
    <path d="M646.39,176.71h14.61v14.61h-14.61v-14.61Z" fill="#09f" stroke-width="0"/>
  </g>
  <path id="Arrow_Upward" data-name="Arrow Upward" d="M215.4,318.13l16.75-16.92c.67-.67.64-1.74,0-2.42l-16.75-16.92c-.66-.67-1.73-.67-2.39,0-.66.67-.66,1.75,0,2.42l13.86,14h-44.68c-.93,0-1.69.76-1.69,1.71s.76,1.71,1.69,1.71h44.68s-13.86,14-13.86,14c-.66.67-.66,1.75,0,2.42.66.67,1.73.67,2.39,0Z" fill="#fff" stroke-width="0"/>
  <path id="Arrow_Upward-2" data-name="Arrow Upward" d="M141.57,281.89l-16.75,16.92c-.67.67-.64,1.74,0,2.42l16.75,16.92c.66.67,1.73.67,2.39,0,.66-.67.66-1.75,0-2.42l-13.86-14h44.68c.93,0,1.69-.76,1.69-1.71s-.76-1.71-1.69-1.71h-44.68l13.86-14c.66-.67.66-1.75,0-2.42-.66-.67-1.73-.67-2.39,0Z" fill="#fff" stroke-width="0"/>
</svg>